<svg xmlns="http://www.w3.org/2000/svg" viewBox="0 0 1077 234.1"><defs><linearGradient id="a" x1="328.3" y1="117" x2="1077" y2="117" gradientUnits="userSpaceOnUse"><stop offset="0" stop-color="#81d4fa"/><stop offset="1" stop-color="#18ffff"/></linearGradient><linearGradient id="b" y1="116.9" x2="426.4" y2="116.9" gradientUnits="userSpaceOnUse"><stop offset="0" stop-color="#69f0ae"/><stop offset="1" stop-color="#76ff03"/></linearGradient></defs><path d="M469.5 0a58.3 58.3 0 00-43 19l-98.2 98 98.1 98a58.3 58.3 0 0043 19H1077V0z" transform="translate(0 .1)" fill="url(#a)"/><path d="M426.4 116.9l-98-98.1a58.3 58.3 0 00-43.1-19H0v234h285.3a58.3 58.3 0 0043-18.8z" transform="translate(0 .1)" opacity=".9" fill="url(#b)"/><path fill="#009688" d="M328.3 117.2L377.4 68l49 49-49.1 49.2z"/><path d="M460.3 36.7H489v120.7c0 5.3.8 8.8 2.6 10.6a9 9 0 006.8 2.7 31.3 31.3 0 007.4-.8 26.4 26.4 0 006.3-2.4l3.9 22a55.9 55.9 0 01-13.4 4.4 73 73 0 01-14 1.5q-13.5 0-20.9-7.2t-7.4-20.3zM527.8 65V36.7h28.5V65zm0 128.2V81h28.5v112.3zM686.2 193.2h-28.7v-62q0-13.4-4.6-19.5t-13.2-6.1a26.1 26.1 0 00-11.7 2.9 35.2 35.2 0 00-10.5 8 37.9 37.9 0 00-7.2 11.9v64.8h-28.5V82h26v20.7a40.5 40.5 0 0110.9-12 53 53 0 0115.2-7.7 60.1 60.1 0 0118.5-2.7q10.5 0 17.2 3.7A25.5 25.5 0 01680 94a45.2 45.2 0 015 14.1 87.6 87.6 0 011.3 15.6zM787.4 193.2l-32.8-48-15.4 14.8v33.2h-28.5V36.7h28.5V132l45.4-50H815l-41.8 47.2 44.8 64zM876 195.4a63 63 0 01-24.5-4.6 55 55 0 01-30.4-30.6 58 58 0 01-4.1-21.8 59.7 59.7 0 017.2-29 54.9 54.9 0 0120.3-21.2q13.2-8 31.7-8 18.2 0 31.2 8a55.1 55.1 0 0120.2 21 58 58 0 017 28.2 60.7 60.7 0 01-.6 9.3h-86.6a30 30 0 004.8 15 28.5 28.5 0 0010.8 9.5 29.8 29.8 0 0013.8 3.4 33.5 33.5 0 0016.4-4.2 22 22 0 0010.4-11.3L928 166a44.8 44.8 0 01-11.4 15.2 54.8 54.8 0 01-17.8 10.4 66.6 66.6 0 01-22.9 3.8zm-29.4-66.7h58.7a32.7 32.7 0 00-4.8-14.6 27.8 27.8 0 00-10.4-9.6 29.8 29.8 0 00-14.4-3.5 28.7 28.7 0 00-14 3.5 28 28 0 00-10.3 9.6 32.7 32.7 0 00-4.8 14.6zM1018.7 105.8a57.4 57.4 0 00-23.6 5 30.7 30.7 0 00-15 14.2v68.2h-28.5V82H978v23a50.1 50.1 0 0115.3-18.3 37.5 37.5 0 0119.6-7.3 20.2 20.2 0 003.5.1 5 5 0 012.3.3zM110.7 195.4a63 63 0 01-24.4-4.6 55 55 0 01-30.5-30.6 58.3 58.3 0 01-4-21.9 59.7 59.7 0 017.1-28.9 55 55 0 0120.4-21.2q13.2-8 31.6-8 18.2 0 31.3 8a55.3 55.3 0 0120.2 21 58 58 0 017 28.2 60.7 60.7 0 01-.6 9.3H82.2a30.2 30.2 0 004.8 15 28.5 28.5 0 0010.7 9.5 29.8 29.8 0 0013.8 3.4 33.5 33.5 0 0016.4-4.2 22 22 0 0010.4-11.3l24.5 6.9a44.8 44.8 0 01-11.4 15.2 54.8 54.8 0 01-17.8 10.4 66.6 66.6 0 01-22.9 3.8zm-29.4-66.7h58.8a32.7 32.7 0 00-4.9-14.6 27.8 27.8 0 00-10.4-9.6 29.8 29.8 0 00-14.3-3.5 28.8 28.8 0 00-14 3.5 28 28 0 00-10.3 9.6 32.7 32.7 0 00-4.9 14.6zM179.5 137.7a65.3 65.3 0 016.4-29 52 52 0 0117.8-20.8 45.4 45.4 0 0126-7.6 42 42 0 0122.3 6 42.9 42.9 0 0115.4 15.6V36.7h29v124.4q0 4.5 1.5 6.4c1 1.3 2.7 2 5.1 2.4v23.3a54.5 54.5 0 01-12.2 1.3c-5.1.2-9.4-1-12.8-3.6a14 14 0 01-5.6-10.1l-.5-7a41.8 41.8 0 01-16.8 16 47 47 0 01-22.2 5.6 52 52 0 01-21.3-4.4 50 50 0 01-17-12.3 57.5 57.5 0 01-11-18.4 63.2 63.2 0 01-4.1-22.6zm88.1 14.5v-26a29.6 29.6 0 00-6.9-11 38 38 0 00-10.5-7.7 26.3 26.3 0 00-23.5 0 30.2 30.2 0 00-9.4 7.3 31.8 31.8 0 00-6 10.6 39.3 39.3 0 00-2 12.7 34.9 34.9 0 002.4 13 34.2 34.2 0 006.4 10.5 27.2 27.2 0 009.9 6.9 32 32 0 0012.4 2.4 26.2 26.2 0 008.4-1.4 32.6 32.6 0 007.8-3.8 35.4 35.4 0 006.8-6 20 20 0 004.2-7.5z"/></svg>